# File exported by Houdini 18.5.351 (www.sidefx.com)
# 168 points
# 324 vertices
# 108 primitives
# Bounds: [-50, -50, 0] to [50, 50, 100]
g 
v -50 50 0
v 50 50 0
v 50 -50 0
v -50 -50 0
v -50 50 100
v 50 50 100
v 50 -50 100
v -50 -50 100
v 40 50 10
v 40 50 90
v -40 50 90
v -40 50 10
v 50 -40 10
v 50 -40 90
v 50 40 90
v 50 40 10
v -40 -50 10
v -40 -50 90
v 40 -50 90
v 40 -50 10
v -50 40 10
v -50 40 90
v -50 -40 90
v -50 -40 10
v 40 -40 0
v 40 40 0
v -40 40 0
v -40 -40 0
v 40 40 100
v 40 -40 100
v -40 -40 100
v -40 40 100
v 40 40 10
v 40 40 90
v -40 40 90
v -40 40 10
v 40 -40 10
v 40 -40 90
v 40 40 90
v 40 40 10
v -40 -40 10
v -40 -40 90
v 40 -40 90
v 40 -40 10
v -40 40 10
v -40 40 90
v -40 -40 90
v -40 -40 10
v 40 -40 10
v 40 40 10
v -40 40 10
v -40 -40 10
v 40 40 90
v 40 -40 90
v -40 -40 90
v -40 40 90
v -40 40 90
v -40 40 90
v -40 -40 90
v -40 -40 90
v 40 -40 90
v 40 -40 90
v 40 40 90
v 40 40 90
v -40 -40 10
v -40 -40 10
v -40 40 10
v -40 40 10
v 40 40 10
v 40 40 10
v 40 -40 10
v 40 -40 10
v -40 -40 10
v -40 -40 10
v -40 -40 90
v -40 -40 90
v -40 40 90
v -40 40 90
v -40 40 10
v -40 40 10
v 40 -40 10
v 40 -40 10
v 40 -40 90
v 40 -40 90
v -40 -40 90
v -40 -40 90
v -40 -40 10
v -40 -40 10
v 40 40 10
v 40 40 10
v 40 40 90
v 40 40 90
v 40 -40 90
v 40 -40 90
v 40 -40 10
v 40 -40 10
v -40 40 10
v -40 40 10
v -40 40 90
v -40 40 90
v 40 40 90
v 40 40 90
v 40 40 10
v 40 40 10
v -40 40 100
v -40 40 100
v -40 -40 100
v -40 -40 100
v 40 -40 100
v 40 -40 100
v 40 40 100
v 40 40 100
v -40 -40 0
v -40 -40 0
v -40 40 0
v -40 40 0
v 40 40 0
v 40 40 0
v 40 -40 0
v 40 -40 0
v -50 -40 10
v -50 -40 10
v -50 -40 90
v -50 -40 90
v -50 40 90
v -50 40 90
v -50 40 10
v -50 40 10
v 40 -50 10
v 40 -50 10
v 40 -50 90
v 40 -50 90
v -40 -50 90
v -40 -50 90
v -40 -50 10
v -40 -50 10
v 50 40 10
v 50 40 10
v 50 40 90
v 50 40 90
v 50 -40 90
v 50 -40 90
v 50 -40 10
v 50 -40 10
v -40 50 10
v -40 50 10
v -40 50 90
v -40 50 90
v 40 50 90
v 40 50 90
v 40 50 10
v 40 50 10
v -50 -50 100
v -50 -50 100
v 50 -50 100
v 50 -50 100
v 50 50 100
v 50 50 100
v -50 50 100
v -50 50 100
v -50 -50 0
v -50 -50 0
v 50 -50 0
v 50 -50 0
v 50 50 0
v 50 50 0
v -50 50 0
v -50 50 0
vt 0.468565136 0.60732758 0
vt 0.251455814 0.621749401 0
vt 0.228515625 0.596679688 0
vt 0.727354228 0.612210393 0
vt 0.510244846 0.626632214 0
vt 0.487304688 0.6015625 0
vt 0.999815166 0.612210393 0
vt 0.782705784 0.626632214 0
vt 0.759765625 0.6015625 0
vt 0.245908901 0.61904633 0
vt 0.0287995506 0.633468151 0
vt 0.005859375 0.608398438 0
vt 0.549619853 0.629788518 0
vt 0.332510501 0.644210339 0
vt 0.309570313 0.619140625 0
vt 0.866026103 0.631741643 0
vt 0.648916721 0.646163464 0
vt 0.625976563 0.62109375 0
vt 0.326963574 0.641507268 0
vt 0.109854236 0.655929089 0
vt 0.0869140625 0.630859375 0
vt 0.688291728 0.649319768 0
vt 0.471182376 0.663741589 0
vt 0.448242188 0.638671875 0
vt 0.988096416 0.651272893 0
vt 0.770987034 0.665694714 0
vt 0.748046875 0.640625 0
vt 0.464658886 0.660061955 0
vt 0.247549549 0.674483776 0
vt 0.224609375 0.649414063 0
vt 0.810362041 0.668851018 0
vt 0.593252659 0.683272839 0
vt 0.5703125 0.658203125 0
vt 0.240049526 0.66982758 0
vt 0.0229401756 0.684249401 0
vt 0 0.659179688 0
vt 0.586729228 0.679593205 0
vt 0.369619876 0.694015026 0
vt 0.346679688 0.668945313 0
vt 0.992002666 0.684476018 0
vt 0.774893284 0.698897839 0
vt 0.751953125 0.673828125 0
vt 0.362119824 0.68935883 0
vt 0.145010486 0.703780651 0
vt 0.122070313 0.678710938 0
vt 0.768369853 0.695218205 0
vt 0.551260471 0.709640026 0
vt 0.528320313 0.684570313 0
vt 0.543760478 0.70498383 0
vt 0.326651126 0.719405651 0
vt 0.303710938 0.694335938 0
vt 0.964658916 0.709866643 0
vt 0.747549534 0.724288464 0
vt 0.724609375 0.69921875 0
vt 0.249815151 0.709866643 0
vt 0.0327057987 0.724288464 0
vt 0.009765625 0.69921875 0
vt 0.740049541 0.719632268 0
vt 0.522940159 0.734054089 0
vt 0.5 0.708984375 0
vt 0.431455761 0.725491643 0
vt 0.214346424 0.739913464 0
vt 0.19140625 0.71484375 0
vt 0.936338603 0.734280705 0
vt 0.719229221 0.748702526 0
vt 0.696289063 0.723632813 0
vt 0.627744853 0.74014008 0
vt 0.410635501 0.754561901 0
vt 0.387695313 0.729492188 0
vt 0.253721386 0.743069768 0
vt 0.0366120487 0.757491589 0
vt 0.013671875 0.732421875 0
vt 0.271852046 0.135926023 0
vt 0 0.135926023 0
vt 0.135926023 0 0
vt 0.545289576 0.135926023 0
vt 0.2734375 0.135926023 0
vt 0.409363538 0 0
vt 0.818727076 0.135926023 0
vt 0.546875 0.135926023 0
vt 0.682801008 0 0
vt 0.999391139 0.230652586 0
vt 0.727539063 0.230652586 0
vt 0.863465071 0.0947265625 0
vt 0.766969264 0.273621321 0
vt 0.495117188 0.273621321 0
vt 0.631043196 0.137695313 0
vt 0.271852046 0.273621321 0
vt 0 0.273621321 0
vt 0.135926023 0.137695313 0
vt 0.799806952 0.755295992 0
vt 0.606445313 0.76714474 0
vt 0.607961774 0.743164063 0
vt 0.996096015 0.756272554 0
vt 0.802734375 0.768121302 0
vt 0.804250836 0.744140625 0
vt 0.445314735 0.758225679 0
vt 0.251953125 0.770074427 0
vt 0.253469616 0.74609375 0
vt 0.194338173 0.768967867 0
vt 0.0009765625 0.780816615 0
vt 0.00249304366 0.756835938 0
vt 0.64258039 0.770920992 0
vt 0.44921875 0.78276974 0
vt 0.450735241 0.758789063 0
vt 0.90039289 0.775803804 0
vt 0.70703125 0.787652552 0
vt 0.708547711 0.763671875 0
vt 0.39648661 0.780686617 0
vt 0.203125 0.792535365 0
vt 0.204641476 0.768554688 0
vt 0.743166327 0.791428804 0
vt 0.549804688 0.803277552 0
vt 0.551321149 0.779296875 0
vt 0.19336161 0.794358492 0
vt 0 0.80620724 0
vt 0.00151648105 0.782226563 0
vt 0.989260077 0.795335054 0
vt 0.795898438 0.807183802 0
vt 0.797414899 0.783203125 0
vt 0.53320539 0.797288179 0
vt 0.33984375 0.809136927 0
vt 0.341360241 0.78515625 0
vt 0.832033515 0.810960054 0
vt 0.638671875 0.822808802 0
vt 0.640188336 0.798828125 0
vt 0.33008036 0.810960054 0
vt 0.13671875 0.822808802 0
vt 0.138235226 0.798828125 0
vt 0.622072577 0.816819429 0
vt 0.428710938 0.828668177 0
vt 0.430227429 0.8046875 0
vt 0.984377265 0.826585054 0
vt 0.791015625 0.838433802 0
vt 0.792532086 0.814453125 0
vt 0.203127235 0.828538179 0
vt 0.009765625 0.840386927 0
vt 0.0112821059 0.81640625 0
vt 0.418947548 0.830491304 0
vt 0.225585938 0.842340052 0
vt 0.227102414 0.818359375 0
vt 0.758791327 0.833420992 0
vt 0.565429688 0.84526974 0
vt 0.566946149 0.821289063 0
vt 0.555666327 0.847092867 0
vt 0.362304688 0.858941615 0
vt 0.363821179 0.834960938 0
vt 0.291994423 0.848069429 0
vt 0.0986328125 0.859918177 0
vt 0.100149296 0.8359375 0
vt 0.911135077 0.849045992 0
vt 0.717773438 0.86089474 0
vt 0.719289899 0.836914063 0
vt 0.708010077 0.862717867 0
vt 0.514648438 0.874566615 0
vt 0.516164899 0.850585938 0
vt 0.428713173 0.864670992 0
vt 0.235351563 0.87651974 0
vt 0.236868039 0.852539063 0
vt 0.196291298 0.867600679 0
vt 0.0029296875 0.879449427 0
vt 0.00444616843 0.85546875 0
vt 0.984377265 0.869553804 0
vt 0.791015625 0.881402552 0
vt 0.792532086 0.857421875 0
vt 0.581056952 0.880295992 0
vt 0.387695313 0.89214474 0
vt 0.389211804 0.868164063 0
vt 0.781252265 0.883225679 0
vt 0.587890625 0.895074427 0
vt 0.589407086 0.87109375 0
vt 0.333010048 0.884202242 0
vt 0.139648438 0.89605099 0
vt 0.141164914 0.872070313 0
vt 0.99414289 0.893967867 0
vt 0.80078125 0.905816615 0
vt 0.802297711 0.881835938 0
vt 0.485353798 0.899827242 0
vt 0.291992188 0.91167599 0
vt 0.293508679 0.887695313 0
vt 0.206056923 0.901780367 0
vt 0.0126953125 0.913629115 0
vt 0.0142117934 0.889648438 0
vt 0.68554914 0.902756929 0
vt 0.4921875 0.914605677 0
vt 0.493703991 0.890625 0
vt 0.882814765 0.912522554 0
vt 0.689453125 0.924371302 0
vt 0.690969586 0.900390625 0
vt 0.358400673 0.917405367 0
vt 0.165039063 0.929254115 0
vt 0.166555539 0.905273438 0
vt 0.558596015 0.920335054 0
vt 0.365234375 0.932183802 0
vt 0.366750866 0.908203125 0
vt 0.75586164 0.930100679 0
vt 0.5625 0.941949427 0
vt 0.564016461 0.91796875 0
vt 0.987306952 0.931077242 0
vt 0.793945313 0.94292599 0
vt 0.795461774 0.918945313 0
vt 0.20117411 0.933030367 0
vt 0.0078125 0.944879115 0
vt 0.00932898093 0.920898438 0
vt 0.43164286 0.937913179 0
vt 0.23828125 0.949761927 0
vt 0.239797726 0.92578125 0
vt 0.628908515 0.947678804 0
vt 0.435546875 0.959527552 0
vt 0.437063366 0.935546875 0
vt 0.860353827 0.948655367 0
vt 0.666992188 0.960504115 0
vt 0.668508649 0.936523438 0
vt 0.274416298 0.953538179 0
vt 0.0810546875 0.965386927 0
vt 0.0825711712 0.94140625 0
vt 0.471681923 0.963303804 0
vt 0.278320313 0.975152552 0
vt 0.279836804 0.951171875 0
vt 0.997072577 0.965256929 0
vt 0.803710938 0.977105677 0
vt 0.805227399 0.953125 0
vt 0.733400702 0.966233492 0
vt 0.540039063 0.97808224 0
vt 0.541555524 0.954101563 0
vt 0.194338173 0.974045992 0
vt 0.0009765625 0.98589474 0
vt 0.00249304366 0.961914063 0
vt 0.57617414 0.981858492 0
vt 0.3828125 0.99370724 0
vt 0.384328991 0.969726563 0
vt 0.870119452 0.982835054 0
vt 0.676757813 0.994683802 0
vt 0.678274274 0.970703125 0
vt 0.518922389 0.301941633 0
vt 0.247070313 0.301941633 0
vt 0.382996351 0.166015625 0
vt 0.947633326 0.368347883 0
vt 0.67578125 0.368347883 0
vt 0.811707258 0.232421875 0
vt 0.715211451 0.411316633 0
vt 0.443359375 0.411316633 0
vt 0.579285383 0.275390625 0
vt 0.352906734 0.411316633 0
vt 0.0810546875 0.411316633 0
vt 0.216980711 0.275390625 0
vt 0.895875514 0.506043196 0
vt 0.624023438 0.506043196 0
vt 0.759949446 0.370117188 0
vt 0.533570826 0.506043196 0
vt 0.26171875 0.506043196 0
vt 0.397644788 0.370117188 0
vt 0.490836591 0.150949121 0
vt 0.2734375 0.16000995 0
vt 0.29906562 0.137695313 0
vt 0.229117855 0.423410058 0
vt 0.01171875 0.432470888 0
vt 0.0373468623 0.41015625 0
vt 0.249625668 0.444894433 0
vt 0.0322265625 0.453955263 0
vt 0.0578546748 0.431640625 0
vt 0.248649105 0.467355371 0
vt 0.03125 0.4764162 0
vt 0.0568781123 0.454101563 0
vt 0.247672543 0.489816308 0
vt 0.0302734375 0.498877138 0
vt 0.0559015498 0.4765625 0
vt 0.296500653 0.510324121 0
vt 0.0791015625 0.51938498 0
vt 0.104729675 0.497070313 0
vt 0.73302412 0.516183496 0
vt 0.515625 0.525244355 0
vt 0.54125309 0.502929688 0
vt 0.494742841 0.521066308 0
vt 0.27734375 0.530127168 0
vt 0.30297187 0.5078125 0
vt 0.938102245 0.521066308 0
vt 0.720703125 0.530127168 0
vt 0.746331215 0.5078125 0
vt 0.22716473 0.530831933 0
vt 0.009765625 0.539892793 0
vt 0.0353937373 0.517578125 0
vt 0.798453808 0.536691308 0
vt 0.581054688 0.545752168 0
vt 0.606682777 0.5234375 0
vt 0.562125683 0.540597558 0
vt 0.344726563 0.549658418 0
vt 0.370354682 0.52734375 0
vt 0.999625683 0.544503808 0
vt 0.782226563 0.553564668 0
vt 0.807854652 0.53125 0
vt 0.341422528 0.548410058 0
vt 0.124023438 0.557470918 0
vt 0.149651542 0.53515625 0
vt 0.699820995 0.557199121 0
vt 0.482421875 0.56625998 0
vt 0.508049965 0.543945313 0
vt 0.901969433 0.564035058 0
vt 0.684570313 0.573095918 0
vt 0.710198402 0.55078125 0
vt 0.479117841 0.565011621 0
vt 0.26171875 0.57407248 0
vt 0.28734687 0.551757813 0
vt 0.229117855 0.565988183 0
vt 0.01171875 0.575049043 0
vt 0.0373468623 0.552734375 0
vt 0.747672558 0.578683496 0
vt 0.530273438 0.587744355 0
vt 0.555901527 0.565429688 0
vt 0.366813153 0.582589746 0
vt 0.149414063 0.591650605 0
vt 0.175042167 0.569335938 0
vt 0.992789745 0.582589746 0
vt 0.775390625 0.591650605 0
vt 0.801018715 0.569335938 0
vt 0.579703808 0.592355371 0
vt 0.362304688 0.60141623 0
vt 0.387932807 0.579101563 0
vt 0.83849287 0.597238183 0
vt 0.62109375 0.606299043 0
vt 0.64672184 0.583984375 0
vt 0.22716473 0.598214746 0
vt 0.009765625 0.607275605 0
vt 0.0353937373 0.584960938 0
vn 0 1 0
vn 1 0 0
vn 0 -1 0
vn -1 0 0
vn 0 1 0
vn 0 1 0
vn 1 0 0
vn 0 -1 0
vn 0 1 0
vn -1 0 0
vn 0 0 -1
vn 1 0 0
vn 1 0 0
vn 0 1 0
vn 0 0 -1
vn 0 -1 0
vn 0 -1 0
vn 1 0 0
vn 0 0 -1
vn -1 0 0
vn -1 0 0
vn 0 -1 0
vn 0 0 -1
vn 0 1 0
vn 0 0 -1
vn -1 0 0
vn 0 -1 0
vn 1 0 0
vn 0 0 1
vn -1 0 0
vn 0 1 0
vn 1 0 0
vn -1 0 0
vn 0 0 -1
vn 1 0 0
vn 0 0 1
vn 0 1 0
vn 0 0 -1
vn 0 -1 0
vn 0 0 1
vn 1 0 0
vn 0 0 -1
vn -1 0 0
vn 0 0 1
vn 0 -1 0
vn 0 0 -1
vn 0 1 0
vn 0 0 1
vn -1 0 0
vn 0 -1 0
vn 1 0 0
vn 0 1 0
vn -1 0 0
vn 0 1 0
vn 1 0 0
vn 0 -1 0
vn 0 0 1
vn 1 0 0
vn 0 0 1
vn 0 1 0
vn 0 0 1
vn -1 0 0
vn 0 0 1
vn 0 -1 0
vn 0 0 -1
vn 1 0 0
vn 0 0 -1
vn 0 -1 0
vn 0 0 -1
vn -1 0 0
vn 0 0 -1
vn 0 1 0
vn -1 0 0
vn 0 1 0
vn -1 0 0
vn 0 0 -1
vn -1 0 0
vn 0 -1 0
vn -1 0 0
vn 0 0 1
vn 0 -1 0
vn -1 0 0
vn 0 -1 0
vn 0 0 -1
vn 0 -1 0
vn 1 0 0
vn 0 -1 0
vn 0 0 1
vn 1 0 0
vn 0 -1 0
vn 1 0 0
vn 0 0 -1
vn 1 0 0
vn 0 1 0
vn 1 0 0
vn 0 0 1
vn 0 1 0
vn 1 0 0
vn 0 1 0
vn 0 0 -1
vn 0 1 0
vn -1 0 0
vn 0 1 0
vn 0 0 1
vn 0 0 1
vn 0 -1 0
vn 0 0 1
vn 1 0 0
vn 0 0 1
vn 0 1 0
vn -1 0 0
vn 0 -1 0
vn 0 0 -1
vn 0 1 0
vn 0 0 -1
vn 1 0 0
vn 0 0 -1
vn 0 -1 0
vn -1 0 0
vn 0 1 0
vn -1 0 0
vn 0 0 1
vn -1 0 0
vn 0 1 0
vn -1 0 0
vn 0 0 -1
vn 0 -1 0
vn 0 0 1
vn 0 -1 0
vn 0 0 1
vn 0 -1 0
vn -1 0 0
vn 0 -1 0
vn 0 0 -1
vn 1 0 0
vn 0 0 1
vn 1 0 0
vn 0 0 1
vn 1 0 0
vn 0 -1 0
vn 1 0 0
vn 0 0 -1
vn 0 1 0
vn 0 0 1
vn 0 1 0
vn 0 0 1
vn 0 1 0
vn 1 0 0
vn 0 1 0
vn 0 0 -1
vn -1 0 0
vn 0 0 1
vn -1 0 0
vn 0 0 1
vn 0 -1 0
vn 0 0 1
vn 1 0 0
vn 0 0 1
vn 0 0 1
vn -1 0 0
vn 0 -1 0
vn 0 0 -1
vn 1 0 0
vn 0 0 -1
vn 0 1 0
vn 0 0 -1
vn -1 0 0
vn 0 0 -1
g 
f 165/1/165 149/2/149 6/3/6
f 6/4/6 147/5/147 5/6/5
f 5/7/5 145/8/145 1/9/1
f 1/10/1 9/11/9 165/12/165
f 163/13/163 141/14/141 7/15/7
f 7/16/7 139/17/139 157/18/157
f 157/19/157 137/20/137 2/21/2
f 2/22/2 13/23/13 163/24/163
f 161/25/161 133/26/133 8/27/8
f 8/28/8 131/29/131 155/30/155
f 155/31/155 129/32/129 3/33/3
f 3/34/3 17/35/17 161/36/161
f 167/37/167 125/38/125 160/39/160
f 160/40/160 123/41/123 153/42/153
f 153/43/153 121/44/121 4/45/4
f 4/46/4 21/47/21 167/48/167
f 164/49/164 117/50/117 166/51/166
f 166/52/166 115/53/115 168/54/168
f 168/55/168 113/56/113 162/57/162
f 162/58/162 25/59/25 164/60/164
f 158/61/158 109/62/109 156/63/156
f 156/64/156 107/65/107 154/66/154
f 154/67/154 105/68/105 159/69/159
f 159/70/159 29/71/29 158/72/158
f 103/73/103 99/74/99 101/75/101
f 95/76/95 91/77/91 93/78/93
f 87/79/87 83/80/83 85/81/85
f 79/82/79 75/83/75 77/84/77
f 71/85/71 67/86/67 69/87/69
f 63/88/63 59/89/59 61/90/61
f 151/91/151 102/92/102 10/93/10
f 150/94/150 100/95/100 11/96/11
f 148/97/148 98/98/98 12/99/12
f 146/100/146 104/101/104 152/102/152
f 143/103/143 94/104/94 14/105/14
f 142/106/142 92/107/92 15/108/15
f 140/109/140 90/110/90 16/111/16
f 138/112/138 96/113/96 144/114/144
f 135/115/135 86/116/86 18/117/18
f 134/118/134 84/119/84 19/120/19
f 132/121/132 82/122/82 20/123/20
f 130/124/130 88/125/88 136/126/136
f 127/127/127 78/128/78 22/129/22
f 126/130/126 76/131/76 23/132/23
f 124/133/124 74/134/74 24/135/24
f 122/136/122 80/137/80 128/138/128
f 119/139/119 70/140/70 26/141/26
f 118/142/118 68/143/68 27/144/27
f 116/145/116 66/146/66 28/147/28
f 114/148/114 72/149/72 120/150/120
f 111/151/111 62/152/62 30/153/30
f 110/154/110 60/155/60 31/156/31
f 108/157/108 58/158/58 32/159/32
f 106/160/106 64/161/64 112/162/112
f 64/163/64 106/164/106 56/165/56
f 58/166/58 108/167/108 55/168/55
f 60/169/60 110/170/110 54/171/54
f 62/172/62 111/173/111 53/174/53
f 72/175/72 114/176/114 52/177/52
f 66/178/66 116/179/116 51/180/51
f 68/181/68 118/182/118 50/183/50
f 70/184/70 119/185/119 49/186/49
f 80/187/80 122/188/122 48/189/48
f 74/190/74 124/191/124 47/192/47
f 76/193/76 126/194/126 46/195/46
f 78/196/78 127/197/127 45/198/45
f 88/199/88 130/200/130 44/201/44
f 82/202/82 132/203/132 43/204/43
f 84/205/84 134/206/134 42/207/42
f 86/208/86 135/209/135 41/210/41
f 96/211/96 138/212/138 40/213/40
f 90/214/90 140/215/140 39/216/39
f 92/217/92 142/218/142 38/219/38
f 94/220/94 143/221/143 37/222/37
f 104/223/104 146/224/146 36/225/36
f 98/226/98 148/227/148 35/228/35
f 100/229/100 150/230/150 34/231/34
f 102/232/102 151/233/151 33/234/33
f 59/235/59 63/236/63 57/237/57
f 67/238/67 71/239/71 65/240/65
f 75/241/75 79/242/79 73/243/73
f 83/244/83 87/245/87 81/246/81
f 91/247/91 95/248/95 89/249/89
f 99/250/99 103/251/103 97/252/97
f 29/253/29 159/254/159 105/255/105
f 105/256/105 154/257/154 107/258/107
f 107/259/107 156/260/156 109/261/109
f 109/262/109 158/263/158 29/264/29
f 25/265/25 162/266/162 113/267/113
f 113/268/113 168/269/168 115/270/115
f 115/271/115 166/272/166 117/273/117
f 117/274/117 164/275/164 25/276/25
f 21/277/21 4/278/4 121/279/121
f 121/280/121 153/281/153 123/282/123
f 123/283/123 160/284/160 125/285/125
f 125/286/125 167/287/167 21/288/21
f 17/289/17 3/290/3 129/291/129
f 129/292/129 155/293/155 131/294/131
f 131/295/131 8/296/8 133/297/133
f 133/298/133 161/299/161 17/300/17
f 13/301/13 2/302/2 137/303/137
f 137/304/137 157/305/157 139/306/139
f 139/307/139 7/308/7 141/309/141
f 141/310/141 163/311/163 13/312/13
f 9/313/9 1/314/1 145/315/145
f 145/316/145 5/317/5 147/318/147
f 147/319/147 6/320/6 149/321/149
f 149/322/149 165/323/165 9/324/9
